@startuml

interface cate.core.WorkspaceManager {
    init_workspace()
    set_workspace_resource()
    write_workspace_resource()
}

class cate.core.FSWorkspaceManager implements cate.core.WorkspaceManager {
}

class cate.webapi.WebAPIWorkspaceManager implements cate.core.WorkspaceManager {
}

interface cate.webapi.WebService {
}

class cate.core.Workspace {
}



cate.webapi.WebAPIWorkspaceManager ..> cate.webapi.WebService: <communicate>
cate.core.FSWorkspaceManager ..--> cate.core.Workspace: <uses>
cate.core.FSWorkspaceManager o--> "0..N" cate.core.Workspace: workspace_cache
cate.webapi.WebService o--> "1" cate.core.FSWorkspaceManager
cate.core.Workspace --> "1" cate.core.Workflow
cate.core.Workflow o--> "0..N" cate.core.OpStep

@enduml